<svg version="1.1" id="Capa_1" xmlns="http://www.w3.org/2000/svg" xmlns:xlink="http://www.w3.org/1999/xlink" x="0px" y="0px" viewBox="0 0 512 512" style="enable-background:new 0 0 512 512;" xml:space="preserve" width="512" height="512" class=""><g><g>
	<path style="fill:#F6FAFC" d="M42.667,51.182H153.6v17.067H42.667V51.182z" data-original="#29485A" class="active-path" data-old_color="#E6EEF3"></path>
	<path style="fill:#F6FAFC" d="M42.667,85.316H153.6v17.067H42.667V85.316z" data-original="#29485A" class="active-path" data-old_color="#E6EEF3"></path>
	<path style="fill:#F6FAFC" d="M42.667,119.449h76.8v17.067h-76.8V119.449z" data-original="#29485A" class="active-path" data-old_color="#E6EEF3"></path>
	<path style="fill:#F6FAFC" d="M42.667,153.582h76.8v17.067h-76.8V153.582z" data-original="#29485A" class="active-path" data-old_color="#E6EEF3"></path>
	<path style="fill:#F6FAFC" d="M0,494.916h512v17.067H0V494.916z" data-original="#29485A" class="active-path" data-old_color="#E6EEF3"></path>
</g><g>
	<path style="fill:#7DB8B1" d="M34.859,383.982l-1.451-17.067c178.321-15.454,331.059-133.931,390.357-302.814L444.245,5.7   l16.111,5.632l-20.48,58.402C378.377,244.983,219.895,367.948,34.859,383.982z" data-original="#ED1C24" class="" data-old_color="#7EB8B1"></path>
	<path style="fill:#7DB8B1" d="M42.667,418.116H102.4v51.2H42.667V418.116z" data-original="#ED1C24" class="" data-old_color="#7EB8B1"></path>
</g><path style="fill:#DCB278" d="M136.533,392.516h59.733v76.8h-59.733V392.516z" data-original="#FBB03B" class="" data-old_color="#DDB37A"></path><path style="fill:#DACFA1" d="M230.4,349.849h59.733v119.467H230.4V349.849z" data-original="#F8CF26" class="" data-old_color="#DACFA0"></path><path style="fill:#609791" d="M324.267,290.116H384v179.2h-59.733V290.116z" data-original="#39B54A" class="" data-old_color="#39B54A"></path><path style="fill:#8EB8D4" d="M418.133,170.649h59.733v298.667h-59.733V170.649z" data-original="#0071BC" class="" data-old_color="#8EB7D3"></path><path style="fill:#7DB8B1" d="M486.4,85.316c-3.251,0.017-6.229-1.809-7.68-4.719L448.41,20.01l-60.595,30.319  c-4.215,2.108-9.344,0.393-11.452-3.823c-2.108-4.215-0.393-9.344,3.823-11.452l68.267-34.133c4.215-2.108,9.344-0.401,11.452,3.814  v0.009l34.133,68.267c2.082,4.224,0.341,9.344-3.883,11.426C488.986,85.008,487.706,85.316,486.4,85.316z" data-original="#ED1C24" class="" data-old_color="#7EB8B1"></path></g> </svg>